<svg width="219" height="82" fill="none" xmlns="http://www.w3.org/2000/svg"><g clip-path="url(#clip0_83_1363)"><path d="M49.471 82H15L46.529 0H81L49.471 82zm51 0H66L97.529 0H132l-31.529 82zm51 0H117l31.529-82H183l-31.529 82z" fill="#656565"/><path d="M48.056 30l12.072 26.82H54.37l-1.787-3.994h-9.054l-1.788 3.995H36L48.056 30zm2.427 18.163l-2.41-5.56-2.445 5.56h4.855zM84.37 53.12C81.746 55.707 78.575 57 74.857 57c-3.696-.01-6.85-1.304-9.464-3.88-2.624-2.61-3.937-5.75-3.937-9.424 0-3.663 1.313-6.81 3.937-9.44 2.635-2.62 5.79-3.93 9.464-3.93l-.016.065c3.63 0 6.801 1.3 9.513 3.897l-3.79 3.766c-1.595-1.565-3.493-2.348-5.69-2.348-2.231 0-4.123.783-5.676 2.348-1.574 1.587-2.362 3.473-2.362 5.658 0 2.206.788 4.092 2.362 5.658 1.564 1.554 3.456 2.331 5.675 2.331 2.231 0 4.134-.782 5.708-2.348l3.79 3.767zm19.667-22.582v5.234h-6.496V56.82h-5.33V35.77h-6.512v-5.233h18.338zm18.239-.065v5.266h-10.629v5.299h7.972v5.266h-7.972v5.3h10.629v5.25h-15.943V30.472h15.943zm2.296.065h9.284c2.57 0 4.757.897 6.561 2.69 1.826 1.805 2.739 3.978 2.739 6.522 0 2.565-.913 4.728-2.739 6.49-1.826 1.793-4.013 2.69-6.561 2.69h-3.969v7.89h-5.315V30.539zm13.27 9.212c0-1.076-.394-2.005-1.181-2.788-.788-.794-1.723-1.19-2.805-1.19h-3.969v7.924l3.969.016c1.082 0 2.017-.391 2.805-1.174.787-.783 1.181-1.712 1.181-2.788zm12.941-3.962v21.033h-5.314V30.538h19.354v26.283h-5.314V35.788h-8.726zm29.59-5.462c3.685 0 6.845 1.31 9.48 3.93 2.635 2.619 3.953 5.766 3.953 9.44 0 3.684-1.318 6.826-3.953 9.424-2.624 2.587-5.784 3.88-9.48 3.88-3.707-.01-6.867-1.304-9.481-3.88-2.624-2.61-3.936-5.75-3.936-9.424 0-3.663 1.312-6.81 3.936-9.44 2.635-2.62 5.796-3.93 9.481-3.93zm0 5.332c-2.242 0-4.139.782-5.692 2.347-1.575 1.587-2.362 3.473-2.362 5.658 0 2.207.787 4.092 2.362 5.658 1.564 1.554 3.461 2.331 5.692 2.331 2.198 0 4.089-.777 5.675-2.331 1.585-1.555 2.378-3.44 2.378-5.658 0-2.196-.793-4.081-2.378-5.658-1.575-1.565-3.466-2.347-5.675-2.347zM219 56.723h-5.692L207.01 42.7l-6.282 14.022h-5.626l11.924-26.185L219 56.723zM6.62 57H0l10.046-26h5.264l2.483 5.288h.828L20.276 31h5.677L36 57h-5.38l-7.034-17.186-2.483 5.288L25.655 57h-5.793l-1.655-3.966L16.552 57h-5.793l4.551-11.898-2.482-5.288L6.62 57z" fill="#fff"/></g><defs><clipPath id="clip0_83_1363"><path fill="#fff" d="M0 0h219v82H0z"/></clipPath></defs></svg>