<svg width="74" height="74" fill="none" xmlns="http://www.w3.org/2000/svg"><circle cx="37" cy="37" r="37" fill="#FFDD2D"/><circle cx="37" cy="37" r="37" fill="#6EE8FD"/><path fill-rule="evenodd" clip-rule="evenodd" d="M41 26a1 1 0 011-1h5a1 1 0 011 1v5a1 1 0 11-2 0v-4h-4a1 1 0 01-1-1z" fill="#000"/><path fill-rule="evenodd" clip-rule="evenodd" d="M47.707 25.293a1 1 0 010 1.414l-7 7a1 1 0 01-1.414-1.414l7-7a1 1 0 011.414 0zM27 40a1 1 0 011 1v4h4a1 1 0 110 2h-5a1 1 0 01-1-1v-5a1 1 0 011-1z" fill="#000"/><path fill-rule="evenodd" clip-rule="evenodd" d="M34.707 38.293a1 1 0 010 1.414l-7 7a1 1 0 01-1.414-1.414l7-7a1 1 0 011.414 0zM47 40a1 1 0 011 1v5a1 1 0 01-1 1h-5a1 1 0 110-2h4v-4a1 1 0 011-1z" fill="#000"/><path fill-rule="evenodd" clip-rule="evenodd" d="M39.293 38.293a1 1 0 011.414 0l7 7a1 1 0 01-1.414 1.414l-7-7a1 1 0 010-1.414zM26 26a1 1 0 011-1h5a1 1 0 110 2h-4v4a1 1 0 11-2 0v-5z" fill="#000"/><path fill-rule="evenodd" clip-rule="evenodd" d="M26.293 25.293a1 1 0 011.414 0l7 7a1 1 0 01-1.414 1.414l-7-7a1 1 0 010-1.414z" fill="#000"/></svg>