<svg width="15" height="15" fill="none" xmlns="http://www.w3.org/2000/svg"><path fill-rule="evenodd" clip-rule="evenodd" d="M2.5 3.125a.629.629 0 00-.625.625v7.5a.63.63 0 00.625.625h10a.629.629 0 00.625-.625v-7.5a.629.629 0 00-.625-.625h-10zM.625 3.75c0-1.033.842-1.875 1.875-1.875h10c1.033 0 1.875.842 1.875 1.875v7.5a1.879 1.879 0 01-1.875 1.875h-10A1.879 1.879 0 01.625 11.25v-7.5z" fill="#6EE8FD"/><path fill-rule="evenodd" clip-rule="evenodd" d="M.738 3.392a.625.625 0 01.87-.154L7.5 7.362l5.892-4.124a.625.625 0 01.716 1.024l-6.25 4.375a.625.625 0 01-.716 0L.892 4.262a.625.625 0 01-.154-.87z" fill="#6EE8FD"/></svg>