<svg width="15" height="15" fill="none" xmlns="http://www.w3.org/2000/svg"><path fill-rule="evenodd" clip-rule="evenodd" d="M7.5 1.25a5 5 0 00-5 5c0 1.936 1.26 3.815 2.641 5.273A18.388 18.388 0 007.5 13.608a18.388 18.388 0 002.359-2.085C11.24 10.065 12.5 8.186 12.5 6.25a5 5 0 00-5-5zm0 13.125l-.347.52-.002-.001-.004-.003-.014-.01a17.758 17.758 0 01-.9-.671 19.636 19.636 0 01-2-1.827C2.804 10.873 1.25 8.689 1.25 6.25a6.25 6.25 0 0112.5 0c0 2.439-1.553 4.622-2.984 6.133a19.632 19.632 0 01-2.847 2.463l-.052.035-.014.01-.004.003h-.002l-.347-.519zm0 0l.347.52a.625.625 0 01-.694 0l.347-.52z" fill="#6EE8FD"/><path fill-rule="evenodd" clip-rule="evenodd" d="M7.5 5a1.25 1.25 0 100 2.5 1.25 1.25 0 000-2.5zM5 6.25a2.5 2.5 0 115 0 2.5 2.5 0 01-5 0z" fill="#6EE8FD"/></svg>