<svg width="236" height="205" fill="none" xmlns="http://www.w3.org/2000/svg"><path d="M1.441 45.278l.494-.077-.494.077zm4.792 16.18l-.455.208.455-.207zm54.96 24.451l.01-.5-.01.5zm37.105.645l-.01.5.01-.5zm28.072 3.896l-.128.483.128-.483zm79.165 20.926l-.128.484.128-.484zm4.926 74.629l.179.467-.179-.467zm-36.377 13.714l-.174-.469.174.469zm-82.355-65.038l-.13-.483.13.483zm31.913-.552l-4.61-3.476-.706 5.73 5.316-2.254zm-2.96 65.328l-.178.467.178-.467zm112.816-61.044l.479-.144-.479.144zM15.115.676c-.294.184-.583.374-.868.572l.569.822c.272-.189.549-.37.829-.546l-.53-.848zm-2.52 1.828c-.528.44-1.04.905-1.536 1.394l.702.712c.477-.47.968-.916 1.474-1.337l-.64-.769zM9.644 5.407a28.998 28.998 0 00-1.3 1.61l.8.6c.403-.538.822-1.057 1.254-1.554l-.754-.656zM7.16 8.706a34.02 34.02 0 00-1.075 1.762l.87.495a31.49 31.49 0 011.042-1.71l-.837-.547zm-2.043 3.579c-.302.608-.592 1.23-.868 1.865l.918.399c.269-.62.55-1.226.846-1.819l-.896-.445zm-1.64 3.772a45.22 45.22 0 00-.682 1.937l.95.31c.21-.641.432-1.273.667-1.893l-.936-.354zM2.2 19.96a50.603 50.603 0 00-.513 1.989l.973.23a49.55 49.55 0 01.503-1.949l-.963-.27zm-.946 3.992c-.13.667-.25 1.34-.357 2.02l.988.155a54.29 54.29 0 01.35-1.982l-.98-.193zm-.64 4.05a59.297 59.297 0 00-.212 2.04l.996.085c.059-.673.128-1.34.209-2.004l-.993-.12zM.26 32.083c-.036.679-.06 1.361-.074 2.047l1 .02c.013-.675.037-1.346.073-2.014l-1-.053zm-.082 4.095c.009.68.028 1.364.059 2.048l.999-.044a63.328 63.328 0 01-.058-2.016l-1 .012zM.36 40.27c.051.679.114 1.358.187 2.039l.994-.107a64.24 64.24 0 01-.184-2.008l-.997.076zm.438 4.07c.047.339.097.677.15 1.015l.987-.154a64.25 64.25 0 01-.147-.998l-.99.138zm.15 1.015c.054.35.111.701.172 1.052l.985-.17c-.06-.345-.116-.69-.17-1.036l-.988.154zm.568 3.147c.143.695.298 1.389.465 2.081l.972-.234a63.556 63.556 0 01-.458-2.049l-.98.202zm.999 4.146c.189.684.39 1.366.603 2.045l.954-.298a62.61 62.61 0 01-.594-2.014l-.963.267zm1.275 4.07c.236.67.483 1.337.742 2l.932-.365a59.87 59.87 0 01-.73-1.967l-.944.332zm1.555 3.973c.141.326.286.651.433.975l.91-.414a57.696 57.696 0 01-.425-.959l-.918.398zm.433.975c.14.309.285.614.432.916l.898-.44c-.143-.293-.283-.59-.42-.89l-.91.414zm1.371 2.698c.334.59.681 1.164 1.044 1.724l.84-.543a31.61 31.61 0 01-1.013-1.673l-.87.492zm2.189 3.382c.4.544.814 1.073 1.243 1.586l.768-.64a32.443 32.443 0 01-1.206-1.539l-.805.593zm2.578 3.095c.46.49.934.966 1.421 1.428l.688-.726c-.473-.448-.933-.91-1.38-1.386l-.73.684zm2.92 2.771a37.95 37.95 0 001.571 1.259l.605-.797a36.334 36.334 0 01-1.53-1.225l-.645.763zm3.205 2.432c.553.376 1.116.74 1.69 1.09l.52-.853a41.33 41.33 0 01-1.647-1.064l-.563.827zm3.427 2.098c.584.322 1.177.632 1.779.93l.444-.896c-.59-.292-1.17-.595-1.741-.91l-.482.876zm3.594 1.785a53.37 53.37 0 001.845.783l.374-.927a52.645 52.645 0 01-1.811-.77l-.408.914zm3.716 1.499c.625.227 1.256.444 1.893.652l.31-.95a60.618 60.618 0 01-1.862-.642l-.34.94zm3.805 1.244c.637.187 1.28.365 1.927.536l.254-.968a70.438 70.438 0 01-1.9-.528l-.281.96zm3.866 1.019a83.42 83.42 0 001.95.433l.206-.979a80.294 80.294 0 01-1.927-.428l-.229.974zm3.91.82c.653.121 1.309.236 1.967.344l.162-.987c-.651-.107-1.3-.22-1.946-.34l-.183.983zm3.94.646c.657.095 1.317.183 1.977.265l.124-.992c-.655-.082-1.308-.17-1.96-.263l-.141.99zm3.96.494c.66.07 1.322.136 1.984.196l.09-.996c-.657-.06-1.313-.124-1.969-.194l-.106.994zm3.971.36c.663.05 1.326.094 1.989.134l.06-.998c-.658-.04-1.316-.084-1.974-.133l-.075.997zm3.979.242c.665.031 1.329.058 1.99.08l.035-.999c-.658-.022-1.317-.05-1.978-.08l-.047.999zm3.982.138c.332.008.663.014.994.02l.017-1c-.328-.006-.658-.012-.988-.02l-.023 1zm.994.02l1.03.018.018-1-1.03-.018-.018 1zm3.092.054l2.061.036.018-1-2.062-.036-.017 1zm4.123.071l2.061.036.017-1-2.061-.035-.017 1zm4.122.072l2.062.036.017-1-2.061-.036-.018 1zm4.123.072l2.061.035.018-1-2.062-.035-.017 1zm4.123.071l2.06.036.018-1-2.061-.036-.017 1zm4.122.072l2.062.036.017-1-2.061-.036-.018 1zm4.123.072l2.061.035.018-1-2.062-.035-.017 1zm4.122.071l2.062.036.017-1-2.061-.036-.018 1zm4.123.072l1.03.018.018-1-1.03-.018-.018 1zm1.03.018c.338.005.674.013 1.011.022l.026-1c-.34-.009-.68-.016-1.019-.022l-.017 1zm3.03.091c.673.03 1.346.064 2.018.105l.061-.998c-.678-.041-1.357-.076-2.035-.106l-.044 1zm4.034.244c.672.053 1.343.11 2.013.175l.095-.996a125.3 125.3 0 00-2.03-.176l-.078.997zm4.023.383c.67.075 1.338.157 2.006.243l.129-.991c-.674-.088-1.348-.17-2.023-.246l-.112.994zm4.008.521c.666.098 1.331.203 1.996.312l.163-.986c-.67-.111-1.341-.216-2.013-.315l-.146.99zm3.987.659c.662.121 1.324.248 1.984.38l.197-.98c-.666-.134-1.333-.262-2.001-.384l-.18.984zm3.962.796c.658.143 1.314.293 1.97.448l.231-.973c-.662-.156-1.324-.307-1.987-.452l-.214.977zm3.932.931c.326.083.652.168.978.254l.256-.967a127.89 127.89 0 00-.987-.256l-.247.969zm.978.254l.99.262.255-.967-.989-.262-.256.967zm2.969.785l1.979.523.255-.967-1.979-.523-.255.967zm3.958 1.046l1.979.523.256-.967-1.979-.523-.256.967zm3.958 1.046l1.979.524.256-.967-1.979-.523-.256.966zm3.958 1.047l1.98.523.255-.967-1.979-.523-.256.967zm3.959 1.046l1.979.523.255-.967-1.979-.523-.255.967zm3.958 1.046l1.979.524.256-.967-1.979-.523-.256.966zm3.958 1.047l1.979.523.256-.967-1.979-.523-.256.967zm3.958 1.046l1.98.523.255-.967-1.979-.523-.256.967zm3.959 1.046l1.979.524.255-.967-1.979-.523-.255.966zm3.958 1.047l1.979.523.256-.967-1.98-.523-.255.967zm3.958 1.046l1.979.523.256-.967-1.979-.523-.256.967zm3.958 1.046l1.98.524.255-.967-1.979-.523-.256.966zm3.959 1.047l1.979.523.255-.967-1.979-.523-.255.967zm3.958 1.046l1.979.523.256-.967-1.98-.523-.255.967zm3.958 1.046l1.979.524.256-.967-1.979-.523-.256.966zm3.958 1.047l1.979.523.256-.967-1.979-.523-.256.967zm3.959 1.046l1.979.523.255-.967-1.979-.523-.255.967zm3.958 1.046l1.979.524.256-.967-1.98-.523-.255.966zm3.958 1.047l1.979.523.256-.967-1.979-.523-.256.967zm3.958 1.046l.99.262.255-.967-.989-.262-.256.967zm.99.262c.324.085.646.175.967.268l.28-.96a45.205 45.205 0 00-.992-.275l-.255.967zm2.878.879c.633.22 1.259.456 1.877.707l.376-.926a39.252 39.252 0 00-1.925-.725l-.328.944zm3.716 1.51c.607.283 1.205.582 1.795.895l.469-.884a39.92 39.92 0 00-1.841-.917l-.423.906zm3.542 1.88c.575.344 1.14.702 1.695 1.074l.556-.831a40.056 40.056 0 00-1.737-1.101l-.514.858zm3.333 2.232c.536.4 1.062.814 1.576 1.24l.639-.769a39.628 39.628 0 00-1.617-1.272l-.598.801zm3.088 2.56c.492.452.973.917 1.442 1.394l.713-.701a40.716 40.716 0 00-1.479-1.43l-.676.737zm2.811 2.86a39.4 39.4 0 011.293 1.534l.781-.625a41.431 41.431 0 00-1.326-1.573l-.748.664zm2.506 3.132c.39.542.767 1.095 1.13 1.658l.84-.542a40.343 40.343 0 00-1.158-1.7l-.812.584zm2.174 3.371c.332.578.651 1.167.955 1.764l.891-.454a41.399 41.399 0 00-.979-1.809l-.867.499zm1.818 3.575c.272.609.529 1.226.77 1.852l.933-.361a40.55 40.55 0 00-.789-1.899l-.914.408zm1.445 3.741c.104.317.205.636.301.957l.958-.288a39.926 39.926 0 00-.309-.981l-.95.312zm.301.957c.093.308.181.615.266.923l.964-.265a42.008 42.008 0 00-.272-.946l-.958.288zm.728 2.781c.14.626.264 1.252.372 1.878l.985-.17a40.936 40.936 0 00-.381-1.926l-.976.218zm.652 3.772c.078.636.14 1.271.186 1.906l.997-.073a39.4 39.4 0 00-.191-1.955l-.992.122zm.279 3.818c.015.639.014 1.278-.002 1.914l.999.026c.017-.653.018-1.308.002-1.964l-.999.024zm-.099 3.826a38.947 38.947 0 01-.191 1.904l.992.125c.081-.649.147-1.3.196-1.954l-.997-.075zm-.476 3.797c-.111.63-.237 1.255-.379 1.877l.975.222c.145-.638.275-1.28.389-1.926l-.985-.173zm-.85 3.732c-.173.615-.36 1.226-.563 1.83l.948.318a39.52 39.52 0 00.578-1.878l-.963-.27zm-1.216 3.63c-.232.594-.48 1.183-.741 1.764l.912.411c.268-.597.522-1.201.761-1.811l-.932-.364zm-1.57 3.49c-.29.568-.595 1.129-.914 1.682l.867.499c.327-.567.639-1.143.938-1.726l-.891-.455zm-1.91 3.316a38.319 38.319 0 01-1.078 1.582l.812.583c.383-.532.751-1.073 1.106-1.623l-.84-.542zm-2.234 3.107a37.25 37.25 0 01-1.231 1.465l.749.663c.434-.491.856-.993 1.264-1.504l-.782-.624zm-2.535 2.866a38.44 38.44 0 01-1.374 1.333l.678.735c.483-.445.953-.901 1.41-1.368l-.714-.7zm-2.813 2.593a36.87 36.87 0 01-1.501 1.186l.599.801c.526-.394 1.04-.8 1.542-1.218l-.64-.769zm-3.061 2.294a37.75 37.75 0 01-1.615 1.028l.516.857a39.745 39.745 0 001.657-1.055l-.558-.83zm-3.279 1.972c-.56.299-1.13.586-1.71.859l.426.905c.595-.281 1.18-.575 1.755-.882l-.471-.882zm-3.461 1.632c-.295.122-.593.24-.892.355l.358.934c.307-.118.612-.239.915-.364l-.381-.925zm-.892.355l-.907.348.357.933.908-.347-.358-.934zm-2.723 1.042l-1.815.693.356.935 1.816-.694-.357-.934zm-3.631 1.385l-1.817.691.355.935 1.817-.691-.355-.935zm-3.634 1.381l-1.817.689.354.935 1.818-.689-.355-.935zm-3.635 1.377l-1.818.687.353.936 1.818-.687-.353-.936zm-3.637 1.373l-1.819.685.352.936 1.82-.685-.353-.936zm-3.638 1.37l-1.82.683.352.936 1.82-.683-.352-.936zm-3.639 1.365l-1.821.683.351.936 1.821-.682-.351-.937zm-3.641 1.364l-1.82.68.35.936 1.82-.68-.35-.936zm-3.642 1.36l-1.821.678.349.938 1.821-.68-.349-.936zm-3.642 1.356l-.91.339.348.937.911-.338-.349-.938zm-.91.339c-.303.112-.606.223-.91.332l.336.941c.308-.11.615-.222.922-.336l-.348-.937zm-2.742.959c-.613.202-1.229.395-1.847.58l.288.958a79.326 79.326 0 001.871-.588l-.312-.95zm-3.708 1.112c-.623.169-1.248.33-1.875.483l.238.972a78.94 78.94 0 001.899-.49l-.262-.965zm-3.761.918c-.631.137-1.264.265-1.897.386l.186.982a75.254 75.254 0 001.923-.391l-.212-.977zm-3.804.722c-.637.104-1.275.2-1.914.288l.135.99a70.308 70.308 0 001.94-.291l-.161-.987zm-3.836.525c-.641.071-1.283.134-1.926.188l.084.997a75.357 75.357 0 001.952-.191l-.11-.994zm-3.857.327a78.17 78.17 0 01-1.934.088l.032 1a80.06 80.06 0 001.96-.09l-.058-.998zm-3.87.127c-.645.005-1.291.001-1.936-.011l-.019 1c.654.012 1.308.016 1.962.011l-.007-1zm-3.871-.072a73.378 73.378 0 01-1.933-.11l-.07.998c.653.045 1.305.082 1.959.111l.044-.999zm-3.863-.27a73.407 73.407 0 01-1.924-.209l-.121.993a79.55 79.55 0 001.95.212l.095-.996zm-3.843-.467a78.342 78.342 0 01-1.912-.307l-.171.985c.645.112 1.29.216 1.937.311l.146-.989zm-3.815-.663a82.782 82.782 0 01-1.893-.404l-.222.975c.639.145 1.278.281 1.919.409l.196-.98zm-3.776-.857a77.024 77.024 0 01-1.871-.5l-.27.963c.63.177 1.262.346 1.895.506l.246-.969zm-3.727-1.048a74.565 74.565 0 01-1.843-.594l-.319.947c.62.209 1.242.41 1.867.603l.295-.956zm-3.67-1.235a99.008 99.008 0 01-.908-.338l-.355.934c.306.117.613.231.92.343l.343-.939zm-.908-.338c-.3-.114-.6-.232-.901-.352l-.372.928c.306.123.612.242.918.358l.355-.934zm-2.701-1.112a59.185 59.185 0 01-1.765-.816l-.434.9c.596.288 1.195.565 1.794.831l.405-.915zm-3.51-1.694a62.307 62.307 0 01-1.716-.929l-.489.872c.578.325 1.159.639 1.742.944l.463-.887zm-3.404-1.908a74.738 74.738 0 01-1.666-1.028l-.537.844c.56.356 1.123.704 1.689 1.042l.514-.858zm-3.297-2.096a81.006 81.006 0 01-1.608-1.114l-.579.815a76.3 76.3 0 001.628 1.128l.559-.829zm-3.186-2.266a76.8 76.8 0 01-1.55-1.191l-.619.786c.519.409 1.042.811 1.57 1.205l.599-.8zm-3.072-2.418a78.372 78.372 0 01-1.493-1.263l-.655.756a83.58 83.58 0 001.511 1.278l.637-.771zm-2.956-2.56a80.608 80.608 0 01-1.433-1.331l-.69.725c.478.454.962.903 1.45 1.347l.673-.741zm-2.836-2.694c-.462-.46-.919-.925-1.368-1.394l-.722.693c.455.474.917.944 1.385 1.41l.705-.709zm-2.707-2.823c-.44-.481-.875-.967-1.3-1.455l-.754.657c.431.494.87.986 1.316 1.473l.738-.675zm-2.568-2.946a76.385 76.385 0 01-1.23-1.52l-.785.618c.406.516.821 1.03 1.245 1.541l.77-.639zm-2.415-3.067a68.732 68.732 0 01-1.15-1.587l-.817.576c.378.538.767 1.074 1.166 1.609l.801-.598zm-2.248-3.197a63.343 63.343 0 01-1.05-1.643l-.85.525c.344.557.7 1.113 1.066 1.669l.834-.551zm-2.05-3.324a54.188 54.188 0 01-.935-1.705l-.885.466c.304.578.622 1.157.953 1.735l.868-.496zm-1.808-3.443a46.478 46.478 0 01-.803-1.779l-.92.391c.257.604.53 1.211.82 1.818l.903-.43zm-1.522-3.583a36.655 36.655 0 01-.624-1.827l-.955.298c.194.622.408 1.248.641 1.877l.938-.348zm-1.147-3.698a28.044 28.044 0 01-.401-1.894l-.985.172c.113.648.252 1.302.415 1.962l.97-.24zm-.66-3.803a21.092 21.092 0 01-.095-1.916l-1 .003c.002.659.036 1.329.1 2.006l.995-.093zm-.003-3.824c.066-.641.167-1.268.304-1.879l-.975-.219a16.91 16.91 0 00-.324 1.997l.995.101zm.841-3.7c.22-.594.48-1.17.781-1.726l-.879-.477a14.296 14.296 0 00-.84 1.857l.938.346zm1.8-3.32c.372-.497.783-.975 1.236-1.433l-.71-.703c-.486.49-.928 1.003-1.327 1.538l.802.598zm2.653-2.69c.486-.379 1.007-.74 1.565-1.082l-.522-.853c-.59.361-1.142.744-1.658 1.147l.615.788zm3.25-2.001a23.27 23.27 0 011.787-.771l-.358-.933c-.652.25-1.274.518-1.865.804l.436.9zm3.586-1.386c.313-.095.632-.186.96-.273l-.26-.966c-.337.09-.667.184-.991.283l.29.956zm.96-.273c.314-.085.634-.166.958-.244l-.235-.972c-.332.08-.66.163-.983.25l.26.966zm2.897-.664a47.83 47.83 0 011.956-.336l-.15-.989c-.681.103-1.347.217-1.995.343l.19.982zm3.928-.598a63.366 63.366 0 011.982-.194l-.082-.997a65.66 65.66 0 00-2.014.198l.114.993zm3.968-.328a82.635 82.635 0 011.992-.08l-.028-.999c-.685.018-1.358.045-2.017.081l.053.998zm3.986-.111c.654-.003 1.319.001 1.996.013l.017-1a91.31 91.31 0 00-2.017-.013l.004 1zm3.993.065c.655.024 1.321.053 1.997.089l.053-.999c-.682-.036-1.353-.066-2.014-.089l-.036.999zm3.99.21c.655.045 1.319.096 1.993.152l.083-.996c-.679-.057-1.348-.108-2.007-.153l-.069.997zm3.987.332c.654.063 1.316.131 1.988.204l.108-.994c-.675-.074-1.342-.142-2-.206l-.096.996z" fill="#828282"/></svg>