<svg width="67" height="83" fill="none" xmlns="http://www.w3.org/2000/svg"><path d="M58.76 10.357l-.456-.205.456.205zM38.235 33.091l.216.45-.216-.45zM13.802 44.768l-.216-.45.216.45zm-6.94 27.5l-.122.485.122-.485zm29.4-1.736l-.033-.499.034.5zm8.296 6.016l.484-.123-.484.123zm1.634 6.427l1.566-5.557-5.596 1.422 4.03 4.135zM66.01.323c-.39.051-.77.182-1.139.372l.46.888c.284-.147.554-.235.81-.269L66.01.323zm-2.88 1.751a14.836 14.836 0 00-1.336 1.661l.818.575a13.8 13.8 0 011.245-1.548l-.726-.688zm-2.469 3.433c-.34.581-.676 1.195-1.005 1.832l.888.459c.322-.624.65-1.221.98-1.784l-.863-.507zm-1.924 3.7c-.145.312-.29.627-.433.945l.912.41c.141-.313.283-.623.427-.93l-.906-.424zm-.433.945c-.132.295-.267.589-.404.881l.905.424c.14-.297.277-.596.411-.895l-.912-.41zm-1.254 2.624a58.608 58.608 0 01-.905 1.713l.877.482a60.31 60.31 0 00.92-1.743l-.892-.452zm-1.867 3.394c-.33.556-.67 1.105-1.02 1.646l.84.542c.356-.552.703-1.11 1.04-1.676l-.86-.512zm-2.1 3.252c-.37.53-.75 1.05-1.14 1.563l.795.605c.398-.523.786-1.054 1.164-1.594l-.82-.574zm-2.343 3.076a44.13 44.13 0 01-1.266 1.461l.741.671a43.93 43.93 0 001.294-1.493l-.77-.639zm-2.595 2.863c-.454.457-.918.903-1.392 1.337l.675.738a41.44 41.44 0 001.427-1.37l-.71-.705zm-2.847 2.604c-.495.41-1 .806-1.517 1.19l.597.803a37.56 37.56 0 001.558-1.223l-.638-.77zm-3.094 2.299c-.534.354-1.078.695-1.634 1.02l.506.863a35.953 35.953 0 001.681-1.05l-.553-.833zm-3.322 1.948c-.285.146-.572.289-.863.428l.432.902c.298-.143.595-.29.888-.44l-.457-.89zm-.863.428l-.872.417.431.902.873-.417-.432-.902zm-2.617 1.25l-1.746.835.431.902 1.746-.834-.431-.902zm-3.49 1.669l-1.746.834.431.902 1.745-.834-.43-.902zm-3.491 1.668l-1.746.834.431.903 1.746-.834-.431-.903zm-3.49 1.669l-1.746.834.431.902 1.745-.834-.43-.903zm-3.491 1.668l-1.746.834.431.902 1.746-.834-.431-.902zm-3.49 1.668l-1.746.834.431.902 1.745-.834-.43-.902zM14.458 43.9l-.873.417.431.902.873-.417-.431-.902zm-.873.417c-.298.143-.593.296-.886.46l.49.872c.274-.153.55-.297.827-.43l-.431-.902zm-2.56 1.532a20.54 20.54 0 00-1.548 1.236l.66.751c.48-.421.972-.815 1.473-1.176l-.585-.811zm-2.974 2.603c-.452.47-.89.962-1.31 1.472l.771.636a24.99 24.99 0 011.26-1.415l-.721-.693zm-2.508 3.035c-.38.534-.743 1.082-1.086 1.64l.852.524a27.29 27.29 0 011.049-1.584l-.815-.58zm-2.058 3.35c-.307.587-.591 1.18-.852 1.776l.917.4c.25-.574.525-1.146.821-1.711l-.886-.464zM1.914 58.45c-.22.632-.41 1.263-.568 1.89l.969.245c.151-.597.333-1.2.544-1.807l-.945-.328zm-.96 3.837a15.586 15.586 0 00-.165 1.99l1 .017c.01-.602.062-1.225.155-1.862l-.99-.145zm-.037 4.001c.104.69.275 1.351.517 1.972l.932-.364a8.213 8.213 0 01-.46-1.758l-.99.15zm1.523 3.776a6.869 6.869 0 001.496 1.44l.578-.816a5.87 5.87 0 01-1.28-1.231l-.794.607zm3.322 2.39c.311.114.637.215.978.3l.243-.97a8.48 8.48 0 01-.875-.268l-.346.938zm.978.3c.077.02.164.023.213.025.065.003.145.004.236.003.183 0 .43-.006.733-.016l-.034-1c-.299.01-.534.016-.703.016-.084 0-.147 0-.191-.002-.06-.002-.048-.005-.011.004l-.243.97zm3.298-.082c.626-.031 1.33-.07 2.1-.112l-.055-.998c-.769.042-1.471.08-2.095.111l.05 1zm4.205-.232l2.1-.125-.06-.998-2.098.124.058.999zm4.203-.253l2.101-.13-.062-.999c-.715.045-1.416.089-2.1.13l.06.999zm4.2-.263l2.1-.134-.063-.998-2.1.134.063.998zm4.201-.27l2.1-.136-.065-.998-2.1.137.065.997zm4.201-.274l2.1-.138-.066-.998-2.1.138.066.998zm4.2-.278l1.048-.07-.067-.998-1.048.07.066.998zm1.048-.07a7.42 7.42 0 01.869-.008l.048-.999a8.558 8.558 0 00-.984.01l.067.997zm2.579.275c.56.162 1.096.387 1.599.67l.49-.872a8.504 8.504 0 00-1.813-.759l-.276.961zm3.003 1.687c.424.39.805.83 1.133 1.312l.827-.561a8.497 8.497 0 00-1.284-1.487l-.676.736zm1.933 2.85c.102.268.19.544.262.828l.97-.246a8.546 8.546 0 00-.297-.938l-.935.356zm.262.828l.205.803.969-.246-.205-.803-.969.246zm.613 2.41l.408 1.607.97-.247-.409-1.606-.97.246z" fill="#828282"/></svg>