<svg width="89" height="77" fill="none" xmlns="http://www.w3.org/2000/svg"><path d="M1.59 17.622l.494-.077-.494.076zM29.879 32.72l-.009.5.009-.5zm7.445.13l.009-.5-.01.5zm10.357 1.437l-.128.483.128-.483zm29.207 7.72l.127-.483-.127.484zm1.817 27.534l-.179-.467.18.467zm-13.42 5.06l.174.468-.175-.468zM34.9 50.606l-.129-.483.13.483zm11.774-.204l-4.625-3.455-.68 5.733 5.305-2.278zm-1.092 24.102l-.177.468.177-.468zm41.622-22.521l-.478.144.478-.144zM6.468.899c-.336.21-.657.444-.964.7l.64.768c.273-.228.558-.435.854-.62l-.53-.848zM3.884 3.316a12.847 12.847 0 00-1.22 1.992l.895.446c.332-.667.708-1.282 1.125-1.838l-.8-.6zM1.79 7.457a18.939 18.939 0 00-.579 2.236l.981.192a17.94 17.94 0 01.548-2.117l-.95-.31zm-.898 4.516c-.065.752-.093 1.52-.084 2.295l1-.012c-.009-.743.018-1.478.08-2.197l-.996-.086zm.054 4.587c.04.379.09.759.15 1.138l.988-.153a23.468 23.468 0 01-.144-1.092l-.994.107zm.15 1.138c.052.335.113.664.184.986l.977-.215a15.09 15.09 0 01-.173-.924l-.988.153zm.744 2.913c.234.64.51 1.251.822 1.833l.88-.473a13.07 13.07 0 01-.763-1.704l-.939.344zm1.896 3.53c.398.54.832 1.048 1.298 1.529l.718-.697a13.9 13.9 0 01-1.21-1.426l-.806.594zm2.777 2.874a18.69 18.69 0 001.617 1.164l.54-.841a17.695 17.695 0 01-1.53-1.102l-.627.779zm3.335 2.16c.579.3 1.176.581 1.79.843l.391-.92a24.308 24.308 0 01-1.72-.81l-.461.886zm3.63 1.552c.614.215 1.24.412 1.876.594l.275-.962a33.289 33.289 0 01-1.822-.576l-.33.944zm3.779 1.086a45.22 45.22 0 001.92.402l.184-.983a44.45 44.45 0 01-1.878-.393l-.226.974zm3.851.725a57.4 57.4 0 001.941.254l.113-.994a56.608 56.608 0 01-1.907-.249l-.146.99zm3.887.444a70.41 70.41 0 001.95.134l.055-.999a69.719 69.719 0 01-1.922-.131l-.083.996zm3.9.216c.327.01.652.017.975.022l.018-1c-.32-.005-.64-.012-.963-.022l-.03 1zm.975.022l.93.017.018-1-.93-.017-.018 1zm2.792.049l1.861.032.018-1-1.861-.032-.018 1zm3.723.065l.93.016.018-1-.931-.016-.017 1zm.93.016c.288.005.576.012.863.023l.038-.999a44.08 44.08 0 00-.883-.024l-.018 1zm2.587.123c.574.044 1.147.1 1.719.168l.117-.993a44.024 44.024 0 00-1.758-.172l-.078.997zm3.429.405c.568.091 1.135.193 1.7.306l.196-.98a44.027 44.027 0 00-1.739-.313l-.157.987zm3.385.68c.28.068.559.139.837.212l.256-.966c-.285-.076-.57-.148-.857-.218l-.236.972zm.837.212l.913.242.255-.967-.912-.241-.256.966zm2.738.724l1.826.483.255-.967-1.825-.482-.256.966zm3.651.965l1.825.483.256-.967-1.825-.483-.256.967zm3.65.965l1.826.483.256-.967-1.826-.482-.255.966zm3.652.965l1.825.483.256-.967-1.826-.482-.255.966zm3.65.966l1.826.482.256-.967-1.826-.482-.255.967zm3.651.965l1.826.482.255-.967-1.825-.482-.255.967zm3.651.965l1.826.482.255-.967-1.825-.482-.256.967zm3.651.965l.913.241.255-.967-.912-.241-.256.967zm.913.241c.293.078.582.164.867.26l.317-.95a15.274 15.274 0 00-.928-.277l-.256.967zm2.543.94c.546.263 1.072.56 1.576.889l.546-.838a15.16 15.16 0 00-1.687-.952l-.435.9zm3.026 1.97c.46.392.894.812 1.3 1.258l.74-.673a15.25 15.25 0 00-1.392-1.346l-.648.762zm2.43 2.67c.346.493.66 1.009.942 1.546l.885-.465a15.192 15.192 0 00-1.007-1.654l-.82.574zm1.679 3.198c.104.281.2.568.288.858l.957-.288c-.093-.31-.196-.617-.308-.919l-.937.349zm.288.858c.1.334.188.668.262 1.004l.976-.218a15.28 15.28 0 00-.28-1.074l-.958.288zm.565 3.052c.05.695.05 1.387-.002 2.07l.997.076a14.94 14.94 0 00.002-2.219l-.997.073zm-.31 4.118a13.893 13.893 0 01-.61 1.978l.932.365c.269-.688.487-1.397.652-2.121l-.975-.222zm-1.505 3.844c-.344.598-.734 1.17-1.165 1.71l.781.624c.464-.58.881-1.194 1.25-1.835l-.866-.499zM82.9 66.365c-.503.464-1.044.893-1.622 1.281l.558.83c.62-.417 1.202-.878 1.742-1.376l-.678-.735zm-3.421 2.302c-.31.147-.628.282-.954.407l.358.934a15.3 15.3 0 001.022-.436l-.426-.905zm-.954.407l-.837.32.358.935.837-.321-.358-.934zm-2.511.96l-1.675.635.354.936 1.677-.637-.356-.935zm-3.352 1.27l-1.677.631.352.936 1.678-.632-.353-.936zm-3.355 1.261l-1.68.628.35.937 1.68-.629-.35-.936zM65.95 73.82l-.84.312.349.937.84-.312-.35-.938zm-.84.312c-.31.115-.62.224-.933.328l.315.949c.323-.107.646-.22.967-.34l-.349-.937zm-2.83.88c-.64.162-1.285.3-1.933.414l.174.985a27.67 27.67 0 002.003-.429l-.244-.97zm-3.891.688c-.656.067-1.314.11-1.972.13l.03 1c.682-.02 1.364-.066 2.044-.136l-.102-.995zm-3.95.12a27.573 27.573 0 01-1.97-.154l-.114.994c.68.077 1.361.13 2.043.159l.042-1zm-3.926-.447a28.077 28.077 0 01-1.929-.433l-.253.967c.662.174 1.328.323 1.999.449l.183-.983zM46.69 74.37a27.763 27.763 0 01-.93-.334l-.355.934c.32.122.641.237.964.347l.321-.947zm-.93-.334a19.699 19.699 0 01-.94-.386l-.403.916c.328.144.658.28.988.405l.355-.935zm-2.766-1.293a25.87 25.87 0 01-1.749-1.063l-.552.834a27.16 27.16 0 001.817 1.104l.484-.875zm-3.416-2.256a30.375 30.375 0 01-1.582-1.307l-.663.75c.53.467 1.075.918 1.634 1.349l.61-.792zm-3.075-2.717c-.486-.49-.951-.993-1.394-1.505l-.756.653c.457.53.938 1.05 1.44 1.556l.71-.704zm-2.675-3.102a24.401 24.401 0 01-1.152-1.69l-.85.527c.366.59.767 1.178 1.2 1.76l.802-.597zm-2.138-3.47a15.165 15.165 0 01-.766-1.867l-.95.314c.217.657.492 1.323.817 1.99l.899-.437zm-1.222-3.8a6.878 6.878 0 01.002-1.941l-.988-.152a7.883 7.883 0 00-.005 2.222l.991-.13zm.628-3.71a4.818 4.818 0 011.271-1.383l-.597-.802a5.815 5.815 0 00-1.531 1.67l.857.515zm2.986-2.297c.295-.112.61-.213.948-.303l-.259-.966c-.367.098-.714.21-1.042.333l.353.936zm.948-.303c.297-.08.607-.152.93-.217l-.198-.98c-.342.068-.672.145-.991.23l.259.967zm2.832-.495c.608-.06 1.251-.098 1.933-.114l-.023-1c-.705.017-1.373.056-2.007.118l.097.996zm3.88-.102c.621.02 1.27.056 1.948.107l.076-.997a45.776 45.776 0 00-1.992-.11l-.033 1z" fill="#828282"/></svg>