<svg width="84" height="127" fill="none" xmlns="http://www.w3.org/2000/svg"><path d="M1.227 36.348l.498-.048-.498.048zm6.006 20.958l.44-.238-.44.238zM76.12 103.04l.484-.124-.484.124zM82.254 127l1.556-5.56-5.593 1.432L82.254 127zM31.229 68.237v.5-.5zM9.904.143c-.248.21-.49.432-.728.663l.698.717c.222-.217.449-.423.679-.62l-.65-.76zm-2.05 2.11c-.404.493-.79 1.016-1.162 1.569l.83.558c.355-.529.723-1.027 1.105-1.494l-.774-.633zm-2.18 3.226c-.312.552-.61 1.126-.894 1.721l.903.431c.275-.575.562-1.13.862-1.661l-.872-.49zM3.998 8.968c-.24.586-.468 1.188-.685 1.805l.944.331a36.92 36.92 0 01.666-1.758L4 8.968zm-1.281 3.64a46.926 46.926 0 00-.516 1.855l.97.248c.157-.617.325-1.222.503-1.814l-.957-.288zm-.958 3.73a54.9 54.9 0 00-.373 1.884l.984.177a54.04 54.04 0 01.366-1.85l-.977-.212zm-.683 3.783a61.507 61.507 0 00-.248 1.904l.993.113c.073-.63.154-1.255.244-1.873l-.989-.144zm-.438 3.816a66.36 66.36 0 00-.134 1.914l.999.056c.035-.633.079-1.262.131-1.886l-.996-.084zM.426 27.77a69.104 69.104 0 00-.025 1.92l1-.002c0-.633.008-1.263.025-1.891l-1-.027zm.003 3.838c.018.638.045 1.278.08 1.918l1-.055a68.89 68.89 0 01-.08-1.891l-1 .028zm.214 3.833c.027.319.055.637.087.956l.995-.097c-.03-.314-.06-.628-.085-.942l-.997.083zm.087.956c.035.367.074.733.116 1.099l.993-.113c-.04-.36-.079-.722-.114-1.083l-.995.097zm.402 3.291c.107.73.227 1.457.358 2.182l.984-.18a63.65 63.65 0 01-.353-2.148l-.99.146zm.792 4.35c.158.723.328 1.44.51 2.153l.97-.248c-.18-.7-.348-1.407-.503-2.118l-.977.214zm1.102 4.286c.212.71.437 1.414.676 2.11l.946-.325a53.416 53.416 0 01-.663-2.07l-.959.285zm1.44 4.19c.271.69.557 1.373.857 2.044l.913-.408a46.863 46.863 0 01-.84-2.002l-.93.365zm1.812 4.047c.168.331.34.659.516.983l.879-.476c-.172-.317-.34-.637-.504-.96l-.891.453zm.516.983c.163.301.333.595.51.882l.85-.525a18.26 18.26 0 01-.481-.833l-.88.476zm1.674 2.55a18.02 18.02 0 001.346 1.526l.711-.702a17.021 17.021 0 01-1.27-1.441l-.787.618zm2.85 2.893c.525.427 1.072.826 1.637 1.199l.55-.836a19.074 19.074 0 01-1.555-1.139l-.632.776zm3.379 2.232c.592.315 1.2.606 1.821.874l.396-.919a23.295 23.295 0 01-1.747-.838l-.47.883zm3.702 1.6a30.23 30.23 0 001.924.59l.262-.964a29.712 29.712 0 01-1.86-.572l-.326.946zm3.878 1.059c.652.136 1.31.254 1.973.356l.152-.989a36.42 36.42 0 01-1.921-.346l-.204.979zm3.96.61c.664.07 1.33.124 1.996.163l.059-.998a44.038 44.038 0 01-1.951-.159l-.104.995zm3.994.24c.333.006.666.009.999.009l-.001-1c-.326 0-.653-.003-.98-.009l-.018 1zm.999.009c.337 0 .674.003 1.01.01l.02-1c-.342-.007-.686-.01-1.031-.01v1zm3.025.095c.673.044 1.342.102 2.008.174l.108-.994a46.991 46.991 0 00-2.052-.178l-.064.998zm4.007.437c.666.102 1.328.219 1.986.35l.195-.98a46.55 46.55 0 00-2.029-.359l-.152.989zm3.954.787a45.74 45.74 0 011.947.525l.28-.96a46.55 46.55 0 00-1.989-.536l-.238.971zm3.868 1.134c.637.218 1.268.45 1.893.694l.365-.93a46.688 46.688 0 00-1.934-.71l-.324.946zm3.754 1.471c.615.273 1.223.56 1.824.859l.446-.896a46.718 46.718 0 00-1.865-.877l-.405.914zm3.61 1.796c.588.326 1.169.665 1.742 1.016l.522-.853a46.768 46.768 0 00-1.78-1.038l-.485.875zm3.437 2.107a45.94 45.94 0 011.647 1.164l.595-.804a46.822 46.822 0 00-1.682-1.19l-.56.83zm3.24 2.4c.522.423 1.035.858 1.538 1.304l.663-.749c-.514-.455-1.038-.9-1.57-1.332l-.63.776zm3.017 2.674c.483.468.955.946 1.417 1.434l.727-.687c-.472-.5-.955-.988-1.448-1.465l-.696.718zm2.77 2.93c.44.507.868 1.025 1.286 1.553l.784-.62a46.768 46.768 0 00-1.314-1.588l-.756.654zm2.502 3.161c.393.544.774 1.098 1.144 1.66l.836-.548a46.71 46.71 0 00-1.169-1.697l-.81.585zm2.213 3.37c.343.576.674 1.16.993 1.754l.881-.473a46.586 46.586 0 00-1.014-1.793l-.86.512zm1.907 3.551c.29.604.569 1.216.834 1.836l.92-.394a46.578 46.578 0 00-.853-1.875l-.9.433zm1.586 3.706c.236.627.46 1.261.67 1.902l.95-.31a46.826 46.826 0 00-.684-1.944l-.936.352zm1.254 3.832c.09.324.178.649.261.976l.97-.248a47.72 47.72 0 00-.268-.997l-.963.269zm.261.976l.256.998.969-.248-.256-.998-.969.248zm.767 2.995l.511 1.997.97-.249-.512-1.996-.969.248zm1.022 3.993l.512 1.997.968-.248-.51-1.997-.97.248zm1.023 3.994l.511 1.996.969-.248-.511-1.996-.97.248zm1.022 3.993l.511 1.997.97-.248-.512-1.997-.969.248zm1.023 3.993l.51 1.997.97-.248-.512-1.997-.968.248z" fill="#828282"/></svg>