<svg width="150" height="189" fill="none" xmlns="http://www.w3.org/2000/svg"><path d="M133.015 22.827l-.456-.205.456.205zM86.046 74.849l-.215-.451.215.451zm-55.912 26.722l-.215-.451.215.451zM14.255 164.5l-.121.485.12-.485zm75.86-4.549l-.034-.499.034.499zm8.283 6.013l.485-.123-.485.123zM104.254 189l1.566-5.557-5.596 1.422 4.03 4.135zM149.688.504a6.478 6.478 0 00-1.067.236l.295.955c.304-.094.605-.16.903-.2l-.131-.991zm-3.01 1.134c-.569.347-1.133.764-1.693 1.242l.649.76a12.38 12.38 0 011.565-1.149l-.521-.853zm-3.194 2.678c-.454.479-.906.996-1.355 1.547l.775.631c.435-.534.871-1.032 1.306-1.49l-.726-.688zM140.88 7.49a46.192 46.192 0 00-1.165 1.681l.833.552c.379-.572.76-1.121 1.141-1.646l-.809-.587zm-2.261 3.402a68.895 68.895 0 00-1.04 1.752l.867.498c.34-.591.682-1.167 1.025-1.727l-.852-.523zm-2.032 3.528c-.319.588-.636 1.187-.951 1.796l.889.459c.311-.603.625-1.197.941-1.778l-.879-.477zm-1.867 3.61c-.297.601-.592 1.21-.885 1.827l.904.429c.29-.612.583-1.217.878-1.814l-.897-.443zm-1.742 3.668c-.141.306-.28.615-.419.924l.912.41c.138-.307.277-.613.416-.918l-.909-.416zm-.419.924c-.136.301-.272.602-.41.902l.91.416.412-.908-.912-.41zm-1.246 2.697a160.88 160.88 0 01-.862 1.784l.897.441c.294-.597.583-1.195.868-1.796l-.903-.429zm-1.749 3.555c-.3.588-.604 1.174-.912 1.758l.884.467c.311-.588.617-1.179.919-1.771l-.891-.454zm-1.85 3.502a125.2 125.2 0 01-.964 1.73l.87.493c.328-.578.652-1.16.971-1.743l-.877-.48zm-1.953 3.445c-.335.569-.674 1.135-1.017 1.699l.854.52c.346-.568.688-1.139 1.025-1.713l-.862-.506zm-2.06 3.381c-.352.559-.709 1.114-1.07 1.666l.837.547c.364-.556.724-1.116 1.079-1.679l-.846-.534zm-2.167 3.313c-.371.546-.746 1.089-1.125 1.628l.818.576a125.8 125.8 0 001.134-1.643l-.827-.561zm-2.278 3.237c-.389.533-.783 1.062-1.181 1.588l.797.604c.402-.53.799-1.065 1.192-1.603l-.808-.59zm-2.39 3.154c-.408.519-.821 1.033-1.238 1.543l.774.633c.421-.515.838-1.034 1.25-1.558l-.786-.618zm-2.504 3.063c-.428.503-.859 1.001-1.296 1.495l.75.662c.44-.498.876-1.002 1.308-1.51l-.762-.647zm-2.62 2.964c-.446.486-.897.966-1.353 1.442l.723.692c.46-.48.916-.967 1.366-1.457l-.736-.677zm-2.735 2.856a92.06 92.06 0 01-1.411 1.385l.693.721c.48-.461.955-.928 1.426-1.4l-.708-.706zm-2.851 2.74a88.12 88.12 0 01-1.47 1.322l.661.75c.5-.44.995-.886 1.486-1.337l-.677-.736zm-2.967 2.611c-.504.425-1.013.843-1.527 1.256l.627.78a93.742 93.742 0 001.544-1.27l-.644-.765zm-3.081 2.476c-.523.4-1.05.795-1.582 1.184l.59.808a83.056 83.056 0 001.6-1.198l-.608-.794zm-3.192 2.33c-.54.375-1.086.744-1.636 1.107l.55.835c.557-.367 1.11-.741 1.657-1.12l-.57-.822zm-3.299 2.174c-.558.348-1.12.69-1.688 1.025l.509.862c.574-.34 1.144-.686 1.709-1.039l-.53-.848zm-3.4 2.01a78.84 78.84 0 01-1.737.94l.465.885c.591-.31 1.177-.628 1.759-.953l-.488-.873zm-3.497 1.836c-.295.146-.591.29-.89.432l.432.902c.302-.144.602-.29.9-.437l-.442-.897zm-.89.432l-.931.445.431.903.932-.446-.431-.902zm-2.795 1.336l-1.864.89.432.903 1.863-.89-.43-.903zm-3.727 1.782l-1.864.89.431.902 1.864-.89-.431-.903zm-3.728 1.781l-1.863.89.43.903 1.864-.89-.43-.903zm-3.727 1.782l-1.864.89.431.903 1.864-.891-.431-.902zm-3.728 1.781l-1.863.89.43.903 1.865-.89-.432-.903zm-3.727 1.781l-1.864.891.431.903 1.864-.891-.431-.903zm-3.728 1.782l-1.863.89.43.903 1.865-.89-.432-.903zm-3.727 1.781l-1.864.891.431.903 1.864-.891-.431-.903zm-3.727 1.782l-1.864.89.431.903 1.864-.89-.431-.903zm-3.728 1.781l-1.864.891.431.903 1.864-.891-.431-.903zm-3.727 1.782l-1.864.89.431.903 1.864-.89-.431-.903zm-3.728 1.781l-1.864.891.432.903 1.863-.891-.43-.903zm-3.727 1.782l-1.864.89.431.903 1.864-.89-.431-.903zm-3.728 1.782l-1.864.89.432.902 1.863-.89-.43-.903zm-3.727 1.781l-.932.445.431.903.932-.446-.431-.902zm-.932.445c-.301.144-.6.293-.9.447l.459.889c.29-.149.58-.294.872-.433l-.431-.903zm-2.67 1.424c-.575.339-1.146.696-1.711 1.07l.551.834a37.631 37.631 0 011.668-1.043l-.507-.861zm-3.36 2.22a44.28 44.28 0 00-1.597 1.225l.627.78a44.015 44.015 0 011.56-1.199l-.59-.806zm-3.14 2.52a49.54 49.54 0 00-1.487 1.355l.688.726c.48-.455.966-.898 1.458-1.329l-.659-.752zm-2.918 2.761c-.467.477-.927.964-1.38 1.46l.738.674a54.02 54.02 0 011.356-1.433l-.714-.701zm-2.71 2.967a61.692 61.692 0 00-1.277 1.548l.782.623c.411-.515.83-1.023 1.256-1.522l-.761-.649zm-2.503 3.136a65.27 65.27 0 00-1.176 1.627l.82.573a60.8 60.8 0 011.157-1.601l-.801-.599zm-2.3 3.288c-.367.56-.725 1.126-1.073 1.696l.853.522a61.7 61.7 0 011.056-1.67l-.836-.548zm-2.094 3.423a65.404 65.404 0 00-.967 1.756l.884.469c.307-.58.624-1.156.951-1.729l-.868-.496zm-1.88 3.545a62.904 62.904 0 00-.857 1.817l.912.412c.27-.598.55-1.194.842-1.788l-.897-.441zm-1.652 3.658a58.27 58.27 0 00-.734 1.868l.937.349a57.79 57.79 0 01.721-1.836l-.924-.381zm-1.402 3.766a52.631 52.631 0 00-.597 1.921l.96.278c.182-.626.377-1.254.586-1.884l-.95-.315zm-1.117 3.86a45.397 45.397 0 00-.436 1.963l.98.195c.127-.636.27-1.276.427-1.919l-.97-.239zm-.783 3.953c-.1.674-.182 1.343-.244 2.005l.996.094c.06-.644.14-1.295.237-1.952l-.989-.147zm-.374 4.021a30.163 30.163 0 00-.003 2.022l1-.033a29.16 29.16 0 01.002-1.955l-1-.034zm.138 4.042c.075.683.176 1.353.306 2.008l.98-.193a22.59 22.59 0 01-.291-1.923l-.995.108zm.797 3.987c.2.66.431 1.302.697 1.924l.92-.394a17.595 17.595 0 01-.66-1.819l-.957.289zm1.617 3.758c.346.593.729 1.162 1.15 1.704l.79-.613a14.398 14.398 0 01-1.076-1.595l-.864.504zm2.52 3.24c.485.473 1.006.918 1.566 1.333l.595-.803a14.271 14.271 0 01-1.462-1.245l-.699.715zm3.288 2.446c.58.325 1.193.622 1.837.891l.385-.923a16.699 16.699 0 01-1.733-.841l-.489.873zm3.753 1.574c.328.098.662.19 1.004.276l.242-.971a20.019 20.019 0 01-.958-.263l-.288.958zm1.004.276c.114.028.279.037.432.041.173.005.399.006.67.003l-.012-1a17.61 17.61 0 01-.629-.002c-.174-.006-.228-.015-.219-.013l-.242.971zm3.113-.013c.595-.023 1.27-.051 2.019-.086l-.046-.999c-.747.035-1.42.063-2.011.085l.038 1zm4.016-.182c.63-.031 1.295-.065 1.994-.102l-.052-.999-1.992.103.05.998zm3.994-.21l2.001-.111-.056-.999-2 .111.055.999zm4.005-.225l1.996-.116-.059-.999-1.994.116.057.999zm3.986-.234l1.996-.119-.06-.998-1.995.119.06.998zm3.998-.24l2.003-.122-.061-.998-2.003.122.06.998zm3.992-.244l1.997-.124-.062-.998-1.996.124.061.998zm4-.249l1.993-.125-.063-.998-1.992.125.063.998zm3.989-.251l2.001-.127-.063-.998-2.001.127.063.998zm3.994-.254l1.997-.128-.064-.997-1.996.127.063.998zm3.997-.256l1.994-.129-.065-.998-1.994.129.065.998zm3.991-.258l1.997-.13-.066-.998-1.996.13.065.998zm3.994-.26l1.996-.131-.066-.998-1.996.131.066.998zm3.992-.262l1.998-.131-.066-.998-1.998.131.066.998zm3.992-.263l1.998-.132-.067-.998-1.997.132.066.998zm3.996-.265l1.992-.133-.066-.997-1.992.132.066.998zm3.99-.266l2-.134-.066-.998-2 .134.067.998zm3.993-.267l1.993-.135-.067-.997-1.993.134.067.998zm3.997-.27l.986-.066-.068-.998-.986.067.068.997zm.986-.066a7.41 7.41 0 01.868-.009l.047-.999a8.732 8.732 0 00-.983.01l.068.998zm2.576.273c.56.161 1.095.387 1.597.669l.49-.871a8.487 8.487 0 00-1.81-.759l-.277.961zm2.998 1.687c.424.39.804.83 1.13 1.313l.829-.561a8.497 8.497 0 00-1.281-1.487l-.678.735zm1.93 2.85a7.5 7.5 0 01.26.828l.97-.247a8.603 8.603 0 00-.296-.937l-.935.356zm.26.828l.245.959.97-.246-.245-.96-.97.247zm.733 2.879l.488 1.92.969-.247-.488-1.919-.969.246zm.976 3.839l.488 1.92.969-.246-.488-1.92-.969.246zm.976 3.84l.488 1.919.969-.246-.488-1.92-.969.247zm.976 3.839l.488 1.919.969-.246-.488-1.92-.969.247zm.976 3.839l.488 1.92.969-.247-.488-1.919-.969.246z" fill="#828282"/></svg>