<svg width="229" height="84" fill="none" xmlns="http://www.w3.org/2000/svg"><path d="M55.923 83.038h-34.74L52.958 0h34.74L55.924 83.038zm51.688 0h-34.74L104.644 0h34.74L107.61 83.038zm51.686 0h-34.74L156.331 0h34.741l-31.775 83.038z" fill="#6EE8FD"/><path d="M48.413 27.852l12.18 27.224h-5.808l-1.804-4.054h-9.135l-1.804 4.054h-5.793l12.164-27.224zm2.45 18.436l-2.433-5.643-2.466 5.643h4.899zm34.19 5.032c-2.647 2.625-5.847 3.938-9.598 3.938-3.73-.01-6.912-1.324-9.55-3.939-2.647-2.647-3.97-5.836-3.97-9.565 0-3.718 1.323-6.912 3.97-9.582 2.66-2.659 5.843-3.988 9.55-3.988l-.017.066c3.663 0 6.863 1.318 9.599 3.955l-3.823 3.823c-1.61-1.589-3.525-2.383-5.742-2.383-2.251 0-4.16.794-5.727 2.383-1.588 1.61-2.383 3.525-2.383 5.742 0 2.24.795 4.154 2.383 5.743 1.578 1.578 3.487 2.367 5.727 2.367 2.25 0 4.17-.795 5.759-2.383l3.823 3.822zm19.843-22.921v5.312h-6.553v21.365h-5.379V33.711h-6.57v-5.312h18.502zm18.403-.067v5.346h-10.724v5.378h8.043v5.346h-8.043v5.378h10.724v5.33h-16.086V28.332h16.086zm2.317.067h9.367c2.593 0 4.799.91 6.62 2.73 1.842 1.832 2.763 4.038 2.763 6.62 0 2.604-.921 4.8-2.763 6.587-1.843 1.82-4.049 2.73-6.62 2.73h-4.005v8.01h-5.362V28.4zm13.388 9.35c0-1.092-.397-2.035-1.191-2.83-.794-.805-1.738-1.208-2.83-1.208h-4.005v8.043l4.005.017c1.092 0 2.036-.398 2.83-1.192.794-.794 1.191-1.738 1.191-2.83zm29.822 13.571c-2.648 2.625-5.847 3.938-9.598 3.938-3.729-.01-6.912-1.324-9.549-3.939-2.648-2.647-3.972-5.836-3.972-9.565 0-3.718 1.324-6.912 3.972-9.582 2.659-2.659 5.842-3.988 9.549-3.988l-.017.066c3.663 0 6.863 1.318 9.599 3.955l-3.823 3.823c-1.611-1.589-3.525-2.383-5.743-2.383-2.25 0-4.159.794-5.726 2.383-1.589 1.61-2.383 3.525-2.383 5.742 0 2.24.794 4.154 2.383 5.743 1.578 1.578 3.487 2.367 5.726 2.367 2.251 0 4.171-.795 5.759-2.383l3.823 3.822zm19.843-22.921v5.312h-6.554v21.365h-5.378V33.711h-6.57v-5.312h18.502zm18.403-.067v5.346h-10.724v5.378h8.043v5.346h-8.043v5.378h10.724v5.33h-16.086V28.332h16.086zm7.662.067v10.674h8.92V28.399H229v26.677h-5.346v-10.69h-8.92v10.69h-5.345V28.4h5.345z" fill="#242424"/><path d="M6.7 55.076H0l10.168-27.114h5.327l2.513 5.515h.838l1.675-5.515h5.746l10.168 27.114h-5.444l-7.12-17.923-2.512 5.515 4.606 12.408h-5.863l-1.675-4.136-1.675 4.136h-5.863l4.606-12.408-2.512-5.515L6.7 55.076z" fill="#242424"/></svg>