<svg width="15" height="15" fill="none" xmlns="http://www.w3.org/2000/svg"><path fill-rule="evenodd" clip-rule="evenodd" d="M4.375 1.875a.625.625 0 00-.625.625v10c0 .345.28.625.625.625h6.25c.345 0 .625-.28.625-.625v-10a.625.625 0 00-.625-.625h-6.25zM2.5 2.5c0-1.036.84-1.875 1.875-1.875h6.25c1.036 0 1.875.84 1.875 1.875v10c0 1.036-.84 1.875-1.875 1.875h-6.25A1.875 1.875 0 012.5 12.5v-10z" fill="#6EE8FD"/><path fill-rule="evenodd" clip-rule="evenodd" d="M6.875 11.25c0-.345.28-.625.625-.625h.006a.625.625 0 110 1.25H7.5a.625.625 0 01-.625-.625z" fill="#6EE8FD"/></svg>