<svg width="138" height="32" fill="none" xmlns="http://www.w3.org/2000/svg"><path d="M138 0l-5.136 2.637 4.852 3.13L138 0zM.653 13.043c.236.227.476.453.722.676l.673-.74a34.538 34.538 0 01-.701-.656l-.694.72zm2.25 1.995a44.67 44.67 0 001.575 1.227l.596-.803a41.637 41.637 0 01-1.537-1.198l-.633.774zm3.228 2.4c.54.366 1.094.726 1.662 1.08l.53-.849c-.558-.347-1.101-.7-1.63-1.059l-.562.828zm3.396 2.119a65.91 65.91 0 001.735.96l.47-.883c-.58-.31-1.15-.624-1.706-.944l-.499.867zm3.53 1.882c.585.29 1.181.574 1.787.853l.418-.908a70.964 70.964 0 01-1.762-.842l-.443.896zm3.631 1.673c.6.258 1.209.51 1.826.758l.372-.928c-.61-.244-1.21-.494-1.803-.749l-.395.92zm3.701 1.485c.614.23 1.236.455 1.864.675l.33-.944a90.37 90.37 0 01-1.843-.668l-.351.937zm3.76 1.316c.627.205 1.26.405 1.9.6l.291-.956a96.325 96.325 0 01-1.88-.594l-.31.95zm3.81 1.164c.638.182 1.282.359 1.93.53l.256-.966c-.642-.17-1.28-.346-1.911-.525l-.274.961zm3.853 1.022c.646.16 1.297.314 1.952.464l.223-.975a103.26 103.26 0 01-1.936-.46l-.239.971zm3.887.89c.648.137 1.3.27 1.957.398l.19-.982a123.24 123.24 0 01-1.94-.394l-.207.978zm3.916.764c.65.116 1.303.227 1.96.334l.161-.986c-.652-.107-1.3-.218-1.945-.333l-.176.985zm3.939.642c.651.096 1.306.188 1.963.275l.132-.991a134.78 134.78 0 01-1.949-.273l-.146.989zm3.943.523a139.3 139.3 0 001.98.22l.103-.995a124.33 124.33 0 01-1.966-.218l-.117.993zm3.96.41c.662.06 1.326.114 1.991.164l.075-.998c-.66-.05-1.32-.103-1.977-.162l-.09.996zm3.973.298c.662.04 1.325.076 1.99.108l.047-1c-.66-.03-1.319-.066-1.976-.106l-.06.998zm3.982.187c.662.022 1.325.04 1.989.052l.019-1c-.66-.012-1.318-.03-1.975-.051l-.033 1zm3.982.076c.663.003 1.327.002 1.991-.004l-.009-1c-.66.006-1.318.007-1.977.004l-.005 1zm3.982-.036c.664-.015 1.328-.035 1.993-.06l-.038-1c-.659.025-1.319.045-1.978.06l.023 1zm3.982-.149a131.65 131.65 0 001.988-.117l-.066-.998c-.657.044-1.316.083-1.974.117l.052.998zm3.975-.263c.663-.054 1.324-.112 1.985-.176l-.095-.995c-.656.063-1.313.121-1.97.174l.08.997zm3.966-.38c.66-.075 1.32-.153 1.98-.237l-.126-.992c-.654.083-1.31.161-1.965.234l.11.994zm3.954-.503c.658-.094 1.314-.193 1.969-.297l-.157-.988c-.65.104-1.3.202-1.953.295l.141.99zm3.937-.627a125.01 125.01 0 001.957-.361l-.19-.982a117.7 117.7 0 01-1.94.358l.173.985zm3.913-.756c.651-.138 1.3-.28 1.948-.43l-.224-.974c-.641.147-1.285.289-1.93.425l.206.979zm3.882-.891c.648-.161 1.293-.328 1.936-.5l-.26-.966c-.636.17-1.275.336-1.917.495l.24.97zm3.855-1.035c.64-.185 1.277-.375 1.911-.572l-.297-.955c-.627.195-1.258.383-1.892.567l.278.96zm3.812-1.183c.63-.21 1.257-.425 1.879-.646l-.335-.943c-.616.22-1.236.433-1.86.64l.316.95zm3.759-1.338a88.18 88.18 0 001.855-.73l-.376-.926c-.607.247-1.219.487-1.835.721l.356.935zm3.695-1.502a82.604 82.604 0 001.825-.817l-.42-.908c-.595.276-1.196.545-1.802.807l.397.918zm3.62-1.674c.602-.296 1.197-.6 1.787-.909l-.464-.885a76.79 76.79 0 01-1.765.897l.442.897zm3.541-1.86c.583-.326 1.16-.66 1.731-1l-.512-.859c-.563.336-1.132.665-1.708.987l.489.872zm3.434-2.049a68.283 68.283 0 001.667-1.095l-.561-.828a67.18 67.18 0 01-1.643 1.08l.537.843zm3.308-2.246c.54-.39 1.073-.79 1.598-1.196l-.612-.79c-.517.399-1.041.791-1.573 1.176l.587.81zm3.162-2.448c.514-.426 1.021-.86 1.519-1.302l-.664-.748c-.489.434-.987.86-1.493 1.28l.638.77zm2.993-2.655c.484-.461.959-.93 1.426-1.407l-.715-.7c-.458.47-.925.93-1.401 1.382l.69.724zm2.799-2.863c.449-.494.888-.996 1.319-1.507l-.765-.644c-.422.5-.854.994-1.294 1.479l.74.672zm2.58-3.065c.409-.526.809-1.06 1.198-1.602l-.812-.583a51.431 51.431 0 01-1.175 1.571l.789.614z" fill="#828282"/></svg>